<svg width="24" height="25" viewBox="0 0 24 25" fill="none" xmlns="http://www.w3.org/2000/svg">
<path d="M6.98599 4.19978C9.78299 7.29478 14.396 0.615781 17.126 3.03978C18.696 4.43378 18.199 7.51378 16.161 9.51978M13.79 14.4838C13.808 14.1488 13.901 13.5368 13.393 13.0718C13.1989 12.9022 12.9723 12.774 12.727 12.6948C11.679 12.3248 10.391 13.5618 11.302 14.6948C11.792 15.3028 12.169 15.4898 12.134 16.1808C12.109 16.6668 11.631 17.1748 11.002 17.3688C10.455 17.5368 9.85199 17.3138 9.47099 16.8878C9.00499 16.3678 9.05099 15.8768 9.04799 15.6628M13.393 13.0728L13.967 12.4978M9.51199 16.9528L8.96699 17.4978" stroke="#A4793E" stroke-width="1.5" stroke-linecap="round" stroke-linejoin="round"/>
<path d="M18.273 7.13264C19.198 7.31064 19.406 7.89464 19.682 9.51664C19.931 10.9766 20.001 12.7296 20.001 13.4766C19.9744 13.7505 19.8629 14.0093 19.682 14.2166C17.747 16.2446 13.906 20.0746 11.968 21.9766C11.208 22.6566 10.06 22.6716 9.25199 22.0476C7.59899 20.5606 6.01099 18.8796 4.45499 17.3616C3.82999 16.5566 3.84499 15.4116 4.52499 14.6536C6.57599 12.5266 10.287 8.88564 12.381 6.87364C12.591 6.69364 12.849 6.58164 13.124 6.55664C13.594 6.55664 14.4 6.61964 15.186 6.66464" stroke="#A4793E" stroke-width="1.5" stroke-linecap="round" stroke-linejoin="round"/>
</svg>
